<?xml version="1.0" encoding="utf-8"?>
<!-- Generator: Adobe Illustrator 23.0.3, SVG Export Plug-In . SVG Version: 6.00 Build 0)  -->
<svg version="1.1" id="Layer_1" xmlns="http://www.w3.org/2000/svg" xmlns:xlink="http://www.w3.org/1999/xlink" x="0px" y="0px"
	 viewBox="0 0 296 327" style="enable-background:new 0 0 296 327;" xml:space="preserve">
<style type="text/css">
	.st0{fill:#FFFFFF;stroke:#000000;stroke-width:5;stroke-miterlimit:10;}
	.st1{fill:none;stroke:#000000;stroke-width:5;stroke-miterlimit:10;}
</style>
<circle class="st0" cx="84.59" cy="295.39" r="23.5"/>
<circle class="st0" cx="41" cy="192.37" r="23.5"/>
<g>
	<line class="st1" x1="84.59" y1="78.26" x2="127.73" y2="121.39"/>
	<line class="st1" x1="127.73" y1="78.26" x2="84.59" y2="121.39"/>
</g>
<g>
	<line class="st1" x1="138.24" y1="186.24" x2="181.37" y2="229.37"/>
	<line class="st1" x1="181.37" y1="186.24" x2="138.24" y2="229.37"/>
</g>
<g>
	<line class="st1" x1="228.43" y1="96.04" x2="271.57" y2="139.17"/>
	<line class="st1" x1="271.57" y1="96.04" x2="228.43" y2="139.17"/>
</g>
<path class="st1" d="M85.38,259.47c-3.42-65.18,4.49-83.76,20.54-94.01c20.99-13.41,52.28-9.29,72.14-26.65
	c17.38-15.2,19.74-41.04,19.01-60.55"/>
<circle class="st0" cx="197.18" cy="32.31" r="23.5"/>
<circle class="st0" cx="246.87" cy="198.27" r="23.5"/>
<polyline class="st1" points="177.68,104.77 197.05,76.77 214.68,105.77 "/>
</svg>
