<?xml version="1.0" encoding="utf-8"?>
<!-- Generator: Adobe Illustrator 23.0.3, SVG Export Plug-In . SVG Version: 6.00 Build 0)  -->
<svg version="1.1" id="Layer_1" xmlns="http://www.w3.org/2000/svg" xmlns:xlink="http://www.w3.org/1999/xlink" x="0px" y="0px"
	 viewBox="0 0 296 327" style="enable-background:new 0 0 296 327;" xml:space="preserve">
<style type="text/css">
	.st0{fill:#F68B22;}
</style>
<g>
	<path class="st0" d="M91.86,314.75c-17.65,0-32-14.35-32-32s14.35-32,32-32s32,14.35,32,32S109.51,314.75,91.86,314.75z
		 M91.86,267.75c-8.27,0-15,6.73-15,15s6.73,15,15,15s15-6.73,15-15S100.13,267.75,91.86,267.75z"/>
</g>
<g>
	<path class="st0" d="M41,224.37c-17.65,0-32-14.35-32-32s14.35-32,32-32s32,14.35,32,32S58.65,224.37,41,224.37z M41,177.37
		c-8.27,0-15,6.73-15,15s6.73,15,15,15s15-6.73,15-15S49.27,177.37,41,177.37z"/>
</g>
<g>
	
		<rect x="97.66" y="69.33" transform="matrix(0.7071 -0.7071 0.7071 0.7071 -39.4934 104.3059)" class="st0" width="17" height="61"/>
	
		<rect x="75.66" y="91.33" transform="matrix(0.7071 -0.7071 0.7071 0.7071 -39.4934 104.3059)" class="st0" width="61" height="17"/>
</g>
<g>
	
		<rect x="151.3" y="177.3" transform="matrix(0.7071 -0.7071 0.7071 0.7071 -100.1341 173.8628)" class="st0" width="17" height="61"/>
	
		<rect x="129.3" y="199.3" transform="matrix(0.7071 -0.7071 0.7071 0.7071 -100.1341 173.8628)" class="st0" width="61" height="17"/>
</g>
<g>
	
		<rect x="241.5" y="87.11" transform="matrix(0.7071 -0.7071 0.7071 0.7071 -9.9389 211.2203)" class="st0" width="17" height="61"/>
	
		<rect x="219.5" y="109.11" transform="matrix(0.7071 -0.7071 0.7071 0.7071 -9.9359 211.2285)" class="st0" width="61" height="17"/>
</g>
<path class="st0" d="M83.68,263.78c-4.19-59.54,1.07-83.99,20.84-96.89c9.93-6.48,21.52-8.83,32.74-11.11
	c12.18-2.47,23.68-4.8,31.73-12.1c10.29-9.33,14.83-26.34,13.47-50.56l16.97-0.95c1.66,29.59-4.75,51.16-19.03,64.1
	c-11.51,10.43-25.87,13.34-39.76,16.16c-10.09,2.05-19.62,3.98-26.82,8.68c-9.53,6.22-17.7,17.13-13.18,81.47L83.68,263.78z"/>
<g>
	<path class="st0" d="M194.18,66.31c-17.65,0-32-14.35-32-32s14.35-32,32-32s32,14.35,32,32S211.83,66.31,194.18,66.31z
		 M194.18,19.31c-8.27,0-15,6.73-15,15s6.73,15,15,15s15-6.73,15-15S202.45,19.31,194.18,19.31z"/>
</g>
<g>
	<path class="st0" d="M246.87,230.27c-17.65,0-32-14.35-32-32s14.35-32,32-32c17.64,0,32,14.35,32,32S264.52,230.27,246.87,230.27z
		 M246.87,183.27c-8.27,0-15,6.73-15,15s6.73,15,15,15s15-6.73,15-15S255.14,183.27,246.87,183.27z"/>
</g>
<polygon class="st0" points="172.13,114.07 161.61,104.83 192.47,69.69 219.23,105.24 208.04,113.66 191.63,91.86 "/>
</svg>
