<svg id="Layer_1" data-name="Layer 1" xmlns="http://www.w3.org/2000/svg" viewBox="0 0 1378.05 848.78"><defs><style>.cls-1{fill:#fff;}</style></defs><title>Artboard 1</title><path class="cls-1" d="M771.87,137c-22.54-15.86-50.46-22.61-76.74-18.23a100.46,100.46,0,0,0-36.84,14c-2.71,1.92-5.43,3.53-8.19,5.69l-8.26,6.15-16.52,12.31L592,181.11c-11.19,8-22.29,16-33.58,23.87-22.49,15.79-45.15,31.33-68.32,46.19,21-17.74,42.6-34.8,64.34-51.61,10.82-8.47,21.83-16.69,32.75-25l33-24.63,16.65-12.15c5.58-4,10.9-8.18,17.14-12a104.35,104.35,0,0,1,19.42-8.94,93,93,0,0,1,10.25-3c1.72-.49,3.5-.66,5.24-1s3.49-.67,5.27-.78a99.19,99.19,0,0,1,10.61-.63c1.77,0,3.54-.12,5.3,0l5.29.39c1.77.07,3.5.46,5.25.7s3.49.45,5.2.9a93,93,0,0,1,10.18,2.7,98.93,98.93,0,0,1,19.12,8.5A118.43,118.43,0,0,1,771.87,137Z"/><path class="cls-1" d="M809.71,149.07c-12-9-23.83-18.07-35.84-26.93-6-4.42-12-8.72-18.56-12a101.7,101.7,0,0,0-20.42-7.82,98.69,98.69,0,0,0-82.73,15.42l.19-.15c-14.93,12.59-30,25-45,37.47S577.13,179.84,562,192.19L539.22,210.6l-22.88,18.3C501,241,485.72,253.15,470.18,265c14.47-13.14,29.15-26,43.85-38.89l22.12-19.21,22.21-19.09c14.88-12.65,29.72-25.34,44.69-37.88s29.9-25.12,45-37.54l.11-.09.08-.06A104.26,104.26,0,0,1,668.42,101a89.85,89.85,0,0,1,10.92-3.8,99.33,99.33,0,0,1,11.28-2.54,100.78,100.78,0,0,1,45.61,2.85,98.6,98.6,0,0,1,21,9c6.67,3.72,12.68,8.48,18.43,13.22C787.26,129.31,798.54,139.12,809.71,149.07Z"/><path class="cls-1" d="M833.69,159c-13.6-11.76-26.63-24.17-39.85-36.34-13.31-12-25.86-25.22-42.08-32.47a98.6,98.6,0,0,0-25.08-8,96.93,96.93,0,0,0-26.23-1.16,100.07,100.07,0,0,0-25.57,5.79A98.41,98.41,0,0,0,651.77,99.2L652,99l-48.92,44.75c-16.38,14.84-32.7,29.75-49.16,44.5l-49.36,44.27-24.84,22q-12.39,11-24.9,21.88,11.91-11.52,23.95-22.93l24-22.84,48.36-45.36c16.11-15.13,32.37-30.1,48.57-45.14l48.8-44.88.12-.1.12-.09a101.63,101.63,0,0,1,51.27-18.73,100.81,100.81,0,0,1,75.86,26c6.74,6,13.19,12.31,19.56,18.67C808.17,133.74,820.82,146.49,833.69,159Z"/><path class="cls-1" d="M857.15,169.51c-15-14.63-29.61-29.6-44.45-44.36-7.42-7.38-14.79-14.79-22.32-22.05S775.3,88.55,767.1,82.32a100,100,0,0,0-57.92-18.83,98.36,98.36,0,0,0-57.82,18.64l.2-.18L600.3,132.56c-17.12,16.85-34.13,33.79-51.34,50.55l-51.5,50.37C480.2,250.17,463,267,445.69,283.58c16.78-17.18,33.72-34.2,50.57-51.31l50.82-51.06c16.91-17.05,34-33.91,51-50.88l51.07-50.81.09-.1.11-.08a101.6,101.6,0,0,1,91.16-13.76A100,100,0,0,1,768.58,80.3c8.39,6.56,15.77,14,23.25,21.32s14.76,14.86,22,22.43Z"/><path class="cls-1" d="M876.4,178.89c-15.92-17.41-31.79-34.85-47.84-52.13s-32-34.62-49-50.93a118.64,118.64,0,0,0-13.39-11.4,99.18,99.18,0,0,0-115.19.65l.12-.11L545.15,176.75,492.2,232.63,439,288.34l52.55-56.28L544.33,176,649.81,63.8l.06-.06.07-.05a100.52,100.52,0,0,1,116.87-.23A122.21,122.21,0,0,1,780.29,75c8.52,8.18,16.69,16.7,24.8,25.26s16.13,17.22,24,26C845,143.69,860.68,161.31,876.4,178.89Z"/><path class="cls-1" d="M894.26,186.54q-25.05-30-51-59.37C826,107.64,808.62,88.22,790.46,69.5c-4.55-4.66-9.15-9.28-13.93-13.71-2.38-2.23-4.83-4.38-7.38-6.4s-5.29-3.79-8-5.52a99.82,99.82,0,0,0-75.18-12,100.77,100.77,0,0,0-18.43,6.32,104.51,104.51,0,0,0-16.86,9.78l0,0L434.19,292.08,650.36,47.63l0,0h0a100.28,100.28,0,0,1,35.44-16.13,102.27,102.27,0,0,1,19.39-2.6,99.83,99.83,0,0,1,56,14.78c2.76,1.74,5.48,3.54,8.06,5.55s5,4.19,7.39,6.42c4.77,4.44,9.37,9.07,13.92,13.74,18.14,18.74,35.53,38.19,52.78,57.75S877.58,166.49,894.26,186.54Z"/><path class="cls-1" d="M417.73,297.12c-22.05,16.54-37.09,41-41.05,67.35a100.45,100.45,0,0,0,1.89,39.35c1,3.17,1.68,6.25,2.89,9.55l3.29,9.76,6.6,19.51,12.79,39.17c4.1,13.1,8.36,26.16,12.32,39.31,8.07,26.26,15.85,52.62,22.81,79.25-10.37-25.5-19.92-51.27-29.19-77.14-4.72-12.91-9.13-25.92-13.69-38.88l-13.22-39-6.41-19.58c-2.1-6.56-4.41-12.9-6.09-20a104.15,104.15,0,0,1-2.5-21.23,88.18,88.18,0,0,1,.36-10.66c.06-1.78.45-3.53.68-5.29s.44-3.53.88-5.25A100.28,100.28,0,0,1,372.77,353c.57-1.68,1-3.4,1.68-5l2-4.91c.62-1.65,1.52-3.19,2.29-4.77s1.51-3.19,2.46-4.67a92.83,92.83,0,0,1,5.72-8.85,98.09,98.09,0,0,1,14-15.55A117.79,117.79,0,0,1,417.73,297.12Z"/><path class="cls-1" d="M440.93,264.87c-12.24,8.59-24.55,17.08-36.69,25.76-6.07,4.38-12,8.72-17.14,13.95a101.93,101.93,0,0,0-13.75,17A98.74,98.74,0,0,0,362.45,405l-.08-.23c7.36,18.09,14.52,36.26,21.72,54.41s14.24,36.36,21.31,54.56l10.47,27.36,10.33,27.42c6.81,18.3,13.6,36.62,20.08,55.06-8-17.82-15.74-35.77-23.44-53.72l-11.43-27-11.3-27c-7.43-18.06-14.91-36.09-22.21-54.21s-14.65-36.2-21.8-54.37l-.06-.13,0-.09a105.11,105.11,0,0,1-4.44-22.69,93.07,93.07,0,0,1-.24-11.57,96.4,96.4,0,0,1,1.08-11.5,100.67,100.67,0,0,1,16.8-42.51,98.53,98.53,0,0,1,15.1-17.19c5.6-5.19,12-9.44,18.27-13.44C415.2,280.12,428,272.41,440.93,264.87Z"/><path class="cls-1" d="M457.83,245.14C442.44,254.45,426.61,263,411,271.82s-32,16.8-43.89,30a98.73,98.73,0,0,0-15.35,21.38,97.32,97.32,0,0,0-9.21,24.59,100.12,100.12,0,0,0-2.4,26.11,98.36,98.36,0,0,0,4.6,25.79l-.11-.28L372,459.74c9,20.16,18.18,40.29,27.12,60.5L426,580.87l13.22,30.4q6.64,15.19,13.12,30.46-7.29-14.9-14.41-29.87L423.64,582l-28.2-60c-9.4-20-18.62-40.09-27.91-60.14l-27.6-60.29-.07-.14,0-.14a101.54,101.54,0,0,1-2-54.55,100.77,100.77,0,0,1,48.2-64.1c7.83-4.55,15.78-8.74,23.79-12.84C425.88,261.6,441.91,253.51,457.83,245.14Z"/><path class="cls-1" d="M475,226.07c-18.54,9.71-37.3,19-55.92,28.56-9.31,4.78-18.64,9.5-27.87,14.42s-18.5,9.85-26.95,15.72A99.86,99.86,0,0,0,328.48,334a98.47,98.47,0,0,0-.15,60.76l-.1-.25,32.29,64.39c10.73,21.49,21.59,42.91,32.21,64.45l32,64.54c10.54,21.58,21.2,43.1,31.66,64.72-11.16-21.27-22.12-42.64-33.18-63.95l-32.85-64.12c-11-21.34-21.75-42.82-32.63-64.22l-32.55-64.27-.06-.12,0-.13a101.53,101.53,0,0,1,15.08-90.95,99.9,99.9,0,0,1,22.67-22.15c8.83-6,18.16-10.67,27.46-15.52s18.7-9.44,28.13-14Z"/><path class="cls-1" d="M489.9,210.66c-21.47,9.76-43,19.47-64.36,29.39S382.71,259.82,362,271a118.38,118.38,0,0,0-15,9.21,99.18,99.18,0,0,0-39.65,75.17A100.6,100.6,0,0,0,312,389.92l-.06-.15L385.51,525l36.78,67.64,36.55,67.76-37.28-67.36-37.05-67.49-74.08-135,0-.07,0-.08a100.55,100.55,0,0,1,35.9-111.23A121.27,121.27,0,0,1,361.42,270c10.41-5.58,21-10.72,31.68-15.79s21.36-10,32.12-14.85C446.72,229.64,468.32,220.18,489.9,210.66Z"/><path class="cls-1" d="M502.7,196q-36.31,14.55-72.21,30.11c-23.91,10.39-47.77,20.95-71.18,32.44-5.84,2.88-11.65,5.84-17.35,9-2.85,1.57-5.65,3.24-8.36,5s-5.24,3.86-7.74,5.95a99.56,99.56,0,0,0-31.19,48.59,99.66,99.66,0,0,0-3.16,38.67,104.12,104.12,0,0,0,4.09,19l0,0L460.91,666.2,295.22,385.07v0a100.26,100.26,0,0,1-4.39-38.7,102.15,102.15,0,0,1,3.52-19.24,99.81,99.81,0,0,1,31.36-48.7c2.51-2.09,5.07-4.12,7.77-5.95s5.53-3.47,8.39-5c5.7-3.17,11.52-6.12,17.37-9,23.43-11.45,47.3-22,71.23-32.34S478.47,205.7,502.7,196Z"/><path class="cls-1" d="M460.61,683.42c8.91,26.08,27.54,47.94,51.37,59.84a100.36,100.36,0,0,0,38,10.37c3.32,0,6.47.33,10,.21l10.3-.12,20.6-.25,41.2-.06c13.73.15,27.46.13,41.2.44,27.47.44,54.94,1.18,82.42,2.79-27.46,2-54.93,3.11-82.39,3.93-13.74.49-27.47.66-41.21,1l-41.21.51-20.6,0c-6.88,0-13.63.21-20.91-.38a104.35,104.35,0,0,1-21-4.18,93,93,0,0,1-10-3.64c-1.68-.61-3.22-1.53-4.82-2.29s-3.22-1.51-4.72-2.46a100.7,100.7,0,0,1-9-5.72c-1.42-1.06-2.93-2-4.27-3.15l-4-3.43c-1.39-1.1-2.57-2.43-3.84-3.65s-2.56-2.42-3.68-3.78a92.76,92.76,0,0,1-6.65-8.18,97.92,97.92,0,0,1-10.46-18.11A117.33,117.33,0,0,1,460.61,683.42Z"/><path class="cls-1" d="M437.1,651.38c4.39,14.3,8.67,28.63,13.17,42.86,2.29,7.12,4.58,14.1,8,20.61a101.47,101.47,0,0,0,11.92,18.33,98.67,98.67,0,0,0,76,36.15h-.25c19.48-1.4,39-2.6,58.46-3.84s39-2.3,58.48-3.41l29.25-1.5,29.27-1.35c19.51-.82,39-1.62,58.57-2.09-19.43,2.13-38.88,3.92-58.33,5.7l-29.19,2.54-29.19,2.38c-19.47,1.49-38.94,3-58.42,4.38s-39,2.75-58.45,3.94h-.24a104.32,104.32,0,0,1-23-2.78A91,91,0,0,1,512.1,770a98.63,98.63,0,0,1-10.61-4.58,100.74,100.74,0,0,1-35.23-29.11,98.81,98.81,0,0,1-11.69-19.68c-3.21-6.93-5.27-14.32-7.13-21.53C443.66,680.57,440.29,666,437.1,651.38Z"/><path class="cls-1" d="M423.56,629.22c4.1,17.51,7.34,35.21,10.89,52.82,3.72,17.54,6.1,35.61,14.95,51A98.73,98.73,0,0,0,465,754.26a97.65,97.65,0,0,0,20.54,16.36A100.07,100.07,0,0,0,509.62,781a98.19,98.19,0,0,0,26,3.6l-.3,0,65.88-7.45c22-2.38,43.93-4.85,65.92-7.11l66-6.8L766,760q16.5-1.6,33-3.06-16.42,2.32-32.86,4.47l-32.87,4.36-65.78,8.27c-21.93,2.77-43.88,5.33-65.83,8l-65.86,7.62-.15,0h-.15a101.66,101.66,0,0,1-52.49-15A100.71,100.71,0,0,1,437,709.05c-1.91-8.85-3.44-17.71-4.85-26.59C429.35,664.69,426.6,646.94,423.56,629.22Z"/><path class="cls-1" d="M410.75,607c3.5,20.64,6.55,41.35,9.88,62,1.66,10.33,3.27,20.67,5.09,31s3.65,20.64,6.63,30.5a99.9,99.9,0,0,0,35.78,49.28,98.48,98.48,0,0,0,57.74,18.91l-.27,0,71.23-10.81c23.74-3.57,47.47-7.28,71.23-10.72l71.28-10.48c23.78-3.36,47.54-6.84,71.33-10.11-23.67,4-47.38,7.86-71.07,11.8l-71.13,11.43c-23.7,3.86-47.45,7.45-71.17,11.18L526.12,802l-.13,0h-.14A101.55,101.55,0,0,1,444,759.6,99.7,99.7,0,0,1,430,731.19c-2.94-10.23-4.54-20.57-6.28-30.91s-3.2-20.7-4.61-31.07Z"/><path class="cls-1" d="M400.68,588.06c2.65,23.44,5.24,46.88,8.07,70.29s5.57,46.85,9.73,70a118.89,118.89,0,0,0,4.13,17.09,99,99,0,0,0,29.17,43.17,99.15,99.15,0,0,0,64.41,24l-.16,0,151.38-28.18,75.69-14.08,75.74-13.82-75.59,14.64-75.63,14.38L516.35,814.35l-.09,0h-.08a100.49,100.49,0,0,1-94.69-68.52,121.39,121.39,0,0,1-4.1-17.27c-2.09-11.62-3.7-23.31-5.23-35s-2.92-23.41-4.2-35.13C405.39,635,403.06,611.52,400.68,588.06Z"/><path class="cls-1" d="M390.73,571.37q2.61,39,6.33,78c2.48,25.95,5.16,51.9,8.85,77.72.94,6.45,1.95,12.89,3.21,19.28.62,3.2,1.33,6.38,2.21,9.51a96.6,96.6,0,0,0,3.26,9.2,99.61,99.61,0,0,0,36.58,44.69,99.93,99.93,0,0,0,35.8,15,104.28,104.28,0,0,0,19.38,2h0L825,756.41,506.4,827.11h0a100.22,100.22,0,0,1-38.16-7.78,100,100,0,0,1-53.84-54.17c-1.2-3-2.35-6.09-3.26-9.23s-1.58-6.33-2.19-9.53c-1.25-6.41-2.26-12.85-3.19-19.3-3.66-25.83-6.3-51.78-8.76-77.74S392.44,597.39,390.73,571.37Z"/><path class="cls-1" d="M841.25,762c27.56-.42,54.11-11.38,72.79-30.36a100.52,100.52,0,0,0,21.6-32.94c1.07-3.15,2.32-6.06,3.28-9.43l3.07-9.83,6.14-19.67,12.67-39.2c4.38-13,8.61-26.08,13.14-39.05,8.91-26,18.11-51.88,28.13-77.52-6.6,26.72-14,53.19-21.73,79.57-3.77,13.21-7.85,26.33-11.78,39.5l-12.24,39.35L950,682c-2.15,6.54-4,13-6.83,19.77a103.77,103.77,0,0,1-10.45,18.64,90.48,90.48,0,0,1-6.56,8.42c-1.1,1.41-2.45,2.59-3.66,3.88s-2.43,2.59-3.81,3.73a100.1,100.1,0,0,1-8.21,6.75c-1.44,1-2.79,2.18-4.31,3.08l-4.51,2.79c-1.47,1-3.1,1.69-4.65,2.52s-3.1,1.69-4.74,2.34a95.33,95.33,0,0,1-9.83,3.79A98.7,98.7,0,0,1,862,762.1,118.46,118.46,0,0,1,841.25,762Z"/><path class="cls-1" d="M803.52,774.46c15,.24,29.9.61,44.82.72,7.49,0,14.84,0,22.07-1.2a102.15,102.15,0,0,0,21.12-5.68,98.67,98.67,0,0,0,57.87-61.1l-.07.23c4.68-19,9.56-37.86,14.41-56.78s9.86-37.79,14.83-56.67l7.61-28.29,7.76-28.25c5.25-18.81,10.52-37.62,16.11-56.35-4,19.14-8.28,38.19-12.61,57.24l-6.6,28.54-6.75,28.5c-4.6,19-9.15,38-13.89,56.91s-9.43,37.9-14.32,56.81l0,.14,0,.09a103.71,103.71,0,0,1-9.74,21,91.44,91.44,0,0,1-6.6,9.5,99.92,99.92,0,0,1-7.63,8.68A100.93,100.93,0,0,1,893.26,773a98.67,98.67,0,0,1-22.32,5c-7.59.91-15.25.59-22.69.13C833.3,777.25,818.4,776,803.52,774.46Z"/><path class="cls-1" d="M778.26,780.49c17.92,1.52,35.75,3.9,53.6,6,17.83,1.89,35.75,5.2,53.13,1.54a99.73,99.73,0,0,0,46.9-22.75,99.94,99.94,0,0,0,17.28-19.72A98.75,98.75,0,0,0,960.61,722l-.08.29,13.27-65c4.53-21.63,9-43.28,13.62-64.89l13.91-64.83,7.18-32.37q3.56-16.18,7.29-32.34-2.87,16.32-5.91,32.62l-6,32.61-12.47,65.13c-4.15,21.71-8.5,43.37-12.76,65.06l-13.11,65,0,.16,0,.14A101.83,101.83,0,0,1,935,768.87a100.73,100.73,0,0,1-76.68,23.52c-9-.92-17.9-2.2-26.79-3.6C813.78,786,796.05,783.08,778.26,780.49Z"/><path class="cls-1" d="M753.13,785.8c20.71,3.05,41.35,6.55,62,9.77,10.34,1.61,20.66,3.27,31,4.72s20.75,2.9,31.05,3.12a99.85,99.85,0,0,0,57.92-18.8A98.42,98.42,0,0,0,971,735.54l-.07.26,11.73-71.08c4-23.68,7.75-47.39,11.82-71.06l12.07-71c4.14-23.66,8.17-47.33,12.42-71-3.47,23.76-7.17,47.49-10.74,71.24L997.1,594.09c-3.66,23.73-7.58,47.42-11.36,71.14L974.3,736.35l0,.14,0,.13a101.57,101.57,0,0,1-65.66,64.71,100,100,0,0,1-31.36,4.59c-10.65-.37-21-2-31.35-3.58s-20.67-3.35-31-5.21Z"/><path class="cls-1" d="M732,789.53c23.11,4.73,46.2,9.51,69.34,14.05S847.66,812.77,871,816a119,119,0,0,0,17.54,1.35,99.22,99.22,0,0,0,92.81-68.24l0,.16,20-152.68,10-76.34,10.26-76.3-9.44,76.41-9.69,76.38L983,749.46v.08l0,.08a100.46,100.46,0,0,1-94.42,68.88,121.39,121.39,0,0,1-17.69-1.43c-11.71-1.61-23.32-3.69-34.92-5.85s-23.16-4.46-34.71-6.86C778.13,799.56,755.09,794.52,732,789.53Z"/><path class="cls-1" d="M713.1,793.84q37.92,9.58,76.11,18.08c25.45,5.66,51,11.13,76.65,15.6,6.42,1.1,12.86,2.12,19.33,2.9,3.24.41,6.48.71,9.73.84a96.38,96.38,0,0,0,9.76-.26,99.86,99.86,0,0,0,67.89-34.45,101.39,101.39,0,0,0,11.19-15.95,104.92,104.92,0,0,0,7.89-17.82v0L1023.26,438l-31.2,324.82v0a100.28,100.28,0,0,1-19.2,33.89,102.58,102.58,0,0,1-14.15,13.49,99.87,99.87,0,0,1-54,21c-3.26.21-6.52.36-9.79.25s-6.51-.45-9.74-.86c-6.48-.79-12.92-1.82-19.35-2.93-25.69-4.5-51.19-10-76.63-15.7S738.37,800.26,713.1,793.84Z"/><path class="cls-1" d="M1033.62,424.28c8.12-26.34,5.9-55-6.38-78.61A100.41,100.41,0,0,0,1002.58,315c-2.66-2-5-4.07-8-6l-8.4-6-16.81-11.91-33.36-24.17c-11-8.19-22.15-16.25-33.08-24.57-22-16.5-43.75-33.25-65-50.7,23.38,14.54,46.26,29.77,69,45.25,11.4,7.67,22.61,15.61,33.92,23.41l33.64,23.81,16.69,12.07c5.55,4.07,11.15,7.85,16.69,12.61a103.63,103.63,0,0,1,14.5,15.7,89.55,89.55,0,0,1,6,8.84c1,1.48,1.71,3.12,2.56,4.68s1.71,3.11,2.37,4.77a100.85,100.85,0,0,1,3.88,9.89c.52,1.69,1.21,3.33,1.6,5.06l1.26,5.15c.48,1.7.64,3.47,1,5.2s.65,3.47.75,5.23a95,95,0,0,1,.58,10.52,99.19,99.19,0,0,1-2.18,20.8A117.52,117.52,0,0,1,1033.62,424.28Z"/><path class="cls-1" d="M1033.8,464c4.85-14.15,9.82-28.26,14.54-42.41,2.34-7.11,4.59-14.11,5.68-21.36a102.48,102.48,0,0,0,1.12-21.84,98.66,98.66,0,0,0-40.23-73.92l.2.14c-16.58-10.31-33.06-20.8-49.55-31.25s-32.89-21-49.31-31.62l-24.55-16-24.47-16.11C851,198.86,834.7,188,818.62,176.93c17,9.7,33.75,19.68,50.53,29.68l25.11,15.1,25,15.23c16.63,10.24,33.28,20.43,49.83,30.8s33.13,20.67,49.6,31.17l.12.08.08.05a104.83,104.83,0,0,1,16.93,15.75,91.78,91.78,0,0,1,7,9.21,97.61,97.61,0,0,1,5.89,9.94,100.84,100.84,0,0,1,11.4,44.27A98.35,98.35,0,0,1,1058,401c-1.47,7.49-4.15,14.68-6.88,21.62C1045.66,436.56,1039.82,450.32,1033.8,464Z"/><path class="cls-1" d="M1031.73,489.9c7-16.57,14.76-32.8,22.24-49.13,7.31-16.37,16-32.39,17.89-50.06a98.7,98.7,0,0,0-.15-26.32,97.12,97.12,0,0,0-7-25.31,99.56,99.56,0,0,0-13.41-22.52,98.5,98.5,0,0,0-18.88-18.17l.26.17L975,265.86c-19.18-11-38.39-21.9-57.51-33L860.13,199.6l-28.56-16.83q-14.31-8.4-28.52-16.93,14.66,7.77,29.21,15.69l29.16,15.8,58.08,32c19.37,10.66,38.63,21.49,57.94,32.25l57.76,32.55.14.07.12.09a101.66,101.66,0,0,1,33.65,43,100.81,100.81,0,0,1-1.31,80.2c-3.66,8.28-7.63,16.34-11.71,24.36C1047.9,457.81,1039.69,473.78,1031.73,489.9Z"/><path class="cls-1" d="M1029,515.44c9.29-18.75,19-37.3,28.45-56,4.73-9.34,9.5-18.65,14.08-28s9.18-18.85,12.56-28.57a99.8,99.8,0,0,0,0-60.9,98.43,98.43,0,0,0-35.6-49.24l.23.15-64-33.12c-21.31-11.08-42.69-22-63.94-33.21L857,193.12c-21.21-11.25-42.48-22.4-63.65-33.74,21.53,10.64,43,21.49,64.43,32.23l64.27,32.56C943.52,235,964.84,246,986.23,257l64.1,32.87.12.06.11.08a101.59,101.59,0,0,1,41.26,82.44,100,100,0,0,1-5.32,31.25c-3.65,10-8.42,19.31-13.09,28.7s-9.58,18.63-14.54,27.85Z"/><path class="cls-1" d="M1026.05,536.65c11.64-20.51,23.32-41,34.79-61.6s23-41.18,33.29-62.38a120.71,120.71,0,0,0,6.71-16.26,100.67,100.67,0,0,0,3.68-17.16,99.23,99.23,0,0,0-39.91-92.19l.14.08L925.72,221l-69.51-33.1-69.4-33.34,69.76,32.59,69.64,32.82,139.28,65.66.07,0,.07.05A100.46,100.46,0,0,1,1102,396.76a120.22,120.22,0,0,1-6.83,16.39c-5.14,10.63-10.71,21-16.35,31.4s-11.4,20.65-17.25,30.89C1049.82,495.91,1037.91,516.27,1026.05,536.65Z"/><path class="cls-1" d="M1024.29,556q20.84-33.11,40.72-66.8c13.24-22.46,26.33-45,38.52-68.08,3-5.77,6-11.58,8.73-17.49,1.39-2.95,2.68-5.94,3.81-9s2-6.21,2.77-9.36a99.71,99.71,0,0,0-3.33-57.65,102.47,102.47,0,0,0-8.46-17.56,101.11,101.11,0,0,0-11.72-15.58,104.7,104.7,0,0,0-14.5-13l0,0L781.75,151.07,1081,281.12h0a100.32,100.32,0,0,1,26.3,28.73,101.75,101.75,0,0,1,8.46,17.64,99.76,99.76,0,0,1,3.26,57.83c-.81,3.16-1.68,6.31-2.79,9.38s-2.44,6.06-3.83,9c-2.75,5.91-5.72,11.72-8.76,17.49-12.22,23-25.34,45.59-38.61,68S1038.21,534,1024.29,556Z"/><g id="_4114_Blasster.tiff" data-name="4114 Blasster.tiff"><path class="cls-1" d="M1356,423.9h-54.11c-.7-4.93-1.3-9.82-2.1-14.68-2.77-17-14.06-27.71-29.62-27.74q-74.46-.14-148.93,0c-20.37.07-30.89,12.15-30.93,34.91q-.09,46.8,0,93.59c0,25.07,10.86,37.29,33.27,37.33q70.86.12,141.72,0c22.53,0,31.3-8.1,35.34-32.6.43-2.57.81-5.16,1.26-8.05H1356c0,12.31-.53,24.68.13,37,.82,15.34-.92,29.06-11.21,40.83-11.9,13.61-26,22-42.72,23.34-18.31,1.5-36.73,1.7-55.11,1.79-47.24.22-94.48.37-141.72-.15a114,114,0,0,1-31.44-5c-25.59-7.76-43.15-34.63-43.16-64.22,0-46.95.66-93.9-.24-140.82-.58-30,12.26-50.72,32.79-67.07,10.53-8.38,22.53-13.68,35.69-13.7,65.91-.06,131.84-.73,197.74.64,25.68.53,44.89,16.65,57.47,41.77a16,16,0,0,1,1.7,6.68C1356,386.13,1356,404.53,1356,423.9Z"/><path class="cls-1" d="M43.63,506.65h58.68c1.31,6.54,2.17,12.94,3.91,19,3.72,13.13,13.18,21.44,25.57,21.5,51.24.23,102.48.33,153.72-.06,16.82-.12,28.16-12.28,28.44-31.54.64-44.22.2-88.46.2-133.82H138.65V319H373.73v10.86q0,104.72,0,209.43c0,36.31-24.51,66-57.05,68.69-12.21,1-24.47,1.61-36.71,1.65-53.64.17-107.29.42-160.92-.2-11.26-.13-22.82-2.54-33.64-6.13-23.61-7.84-43.25-36.72-41.86-65.7C44,527.58,43.63,517.5,43.63,506.65Z"/><path class="cls-1" d="M629.15,375.37C603.89,411.81,579.3,447,555,482.46c-10,14.62-20.34,29.15-29,44.74-8.54,15.3-6,19.58,10.45,20,19.25.47,38.52.22,57.77.27h9.26V610h-8.78c-30.49,0-61-.49-91.47.13-33.47.67-51.43-23.35-54.79-56.37-.5-4.94,2-11.09,4.73-15.48,24.56-40,48.86-80.24,74.46-119.42,20.89-32,43.53-62.53,65.22-93.87,3.59-5.18,7.52-7.27,13.53-7.13,19.51.45,39.05-.06,58.57.41,3,.07,7.43,2.4,8.84,5.17q72.1,141.42,143.67,283.2a30.44,30.44,0,0,1,1.12,3.34c-21.78,0-43,.19-64.3-.29-2.25-.05-5.13-3.6-6.53-6.29Q692,496.64,636.68,389.68C634.43,385.34,632.13,381,629.15,375.37Z"/><path class="cls-1" d="M945.46,609.55h-61.3V427.12c0-32-3.69-37.56-31-46.82-1.52-.52-3.07-.91-5.15-1.52,6.82-18.75,13.44-37.42,20.54-55.87.85-2.22,4.26-4.62,6.46-4.59,31,.4,65.15,25,70,61.81a55.76,55.76,0,0,1,.7,7q0,109,0,218C945.73,606.31,945.59,607.48,945.46,609.55Z"/></g></svg>