<?xml version="1.0" encoding="UTF-8"?>
<svg width="410.13" height="537.83" version="1.1" viewBox="0 0 246.08 322.7" xmlns="http://www.w3.org/2000/svg">
<path d="m123.04 1.2002c-66.774-0.10337-121.84 36.129-121.84 36.129s-0.41936 102.81 31.635 167.86c38.542 78.221 87.955 114.53 90.014 116.02v0.28711s0.17836-0.13656 0.18945-0.14453c0.0111 8e-3 0.18945 0.14453 0.18945 0.14453v-0.28711c2.0583-1.491 51.471-37.799 90.014-116.02 32.054-65.053 31.635-167.86 31.635-167.86s-55.064-36.232-121.84-36.129z" fill="#171695"/>
<path d="m123.97 75.179c-38.238-0.03978-78.717 22.033-102.83 51.711 18.161 109.39 102.83 178.86 102.83 178.86s84.667-69.461 102.83-178.86c-24.111-29.678-64.59-51.751-102.83-51.711z" fill="none" stroke="#252541" stroke-width="2"/>
<path d="m117.65 200.15c0.22276-24.163 0.72429-48.331 0.76474-72.491-3.4093-2.716-6.1771-7.05-5.7856-11.546 1.9789-5.9597 1.7443-13.803-3.9582-17.636 1.8433 5.0171 0.26645 10.325-2.0321 14.893-3.226 6.8124-3.2514 15.826 2.3417 21.48 3.7657 3.5442 4.8942 8.9284 4.1338 13.888-0.90701-4.1592-3.1854-8.269-7.0592-10.453-2.6858-1.4232-6.0935-2.2012-7.68-5.4303-1.8455-4.6228 0.57719-10.883-3.664-14.655-2.1153-2.7543-0.60992 2.8488-1.4523 6.005-2.7227 6.9975-2.736 16.688 3.9518 21.421 7.0203 3.051 11.93 10.347 14.244 17.644 0.64053 2.8573 3.6353 9.829-1.026 5.0949-2.0867-1.4452-4.7634-1.5364-7.2033-2.196-2.2111-0.97619-4.6484-2.1535-5.8647-4.6307-1.2525-6.7559-3.6439 3.0959-2.5354 5.7975 0.75012 3.2858 3.5415 5.8686 6.5368 6.7892 5.3657 2.4602 10.013 7.6601 11.416 13.658 1.4895 3.9304 0.0343 1.8767-2.3495 1.4882-4.1636-0.67852-8.7009-1.1125-8.6626-6.3935-1.5588 2.6439-0.35735 9.9462 3.2674 12.781 4.1804 3.9253 8.5014 8.6678 7.7912 14.848-1.3426-1.0678-3.4449-6.4157-6.6622-8.0086-2.5913-1.283-5.5194-1.6909-8.4267-1.92-4.2628-0.33596-5.5236-7.0758-6.278-8.16-2.1353 6.2842-1.7474 14.361 4.1447 18.4 1.8745 1.3902 3.8662 1.9662 5.76 3.2 6.1234 3.616 12.541 9.1598 12.866 16.876-2.1926-1.5176-4.359-1.9963-6.8931-2.5488-5.1244-1.1616-6.3828-3.2136-7.6173-5.6054-1.4068 3.7385-1.4076 9.087 2.604 11.332 2.3092 1.2364 5.0499 1.6519 7.36 2.7733 3.2903 1.5294 6.17 4.5116 7.5368 7.9542 0.16138-14.883 0.24569-29.766 0.43081-44.648zm11.787 44.36c2.0528-3.4325 5.9175-6.1306 9.2582-7.6665 3.1644-1.7088 5.4601-5.2564 6.4126-8.8633 0.9782-2.5496 3.1406-4.6863 5.5341-5.5192-1.4595-2.3635-7.7145-1.0161-8.9744 2.2226-1.2402 2.1941-2.0186 6.2395-4.8538 6.6002-1.8386-4.7818 1.8391-9.3228 5.7216-11.72 4.751-2.7173 5.9403-8.4822 5.6681-13.561-0.47323-2.6628 3.5956-7.4376-0.97477-4.7862-3.3806 2.1948-3.9949 6.2219-6.4596 8.96-1.7323 1.2846-6.6189 5.1661-4.9206 0.2601-0.15386-6.2165 6.2318-9.3808 7.6425-15.009 2.0182-5.3841 1.3992-12.149 6.3626-16.003 1.1581-1.3309 3.7292-1.4513 4.4717-2.4653-2.6409-0.81956-5.6513-1.9782-8.4833-0.916-4.0135 0.9504-5.8123 5.6086-6.8508 9.3521-0.84516 2.3388-3.826 8.1323-5.3123 6.7794-0.73094-5.4087 0.42272-11.13 4.3828-15.052 3.1556-3.1139 7.6264-5.4018 7.7325-10.478 0.85585-5.8424 0.24119-12.857 5.1679-17.054 1.2324-1.6278 4.8392-1.7365 5.3333-2.56-2.3741-1.4543-5.6625-2.2649-8.5333-1.28-4.7492 1.533-8.2315 6.7727-8.8639 11.774-0.15 2.4524-3.3149 9.591-4.6563 7.583 0.0931-7.8592 0.74192-16.675 6.5869-22.549 3.647-4.2573 4.6802-11.032 2.1333-16.008-3.2221-5.4172-2.8943-12.673-0.10357-18.353 0.33896-1.8011-3.7282 0.34225-4.8465 1.1494-4.6125 3.5553-2.6036 9.7857-2.6381 14.684-0.26023 4.4475-2.3158 9.4809-6.7049 11.115-1.8892 0.32158-0.70904 2.7968-1.0036 4.3335 0.47611 35.043 0.25317 70.091 0.97152 105.13 0.0771 2.5847 0.077 1.0616 0.80023-0.0997z" fill="#ba122b" stroke-width=".21333"/>
<path d="m122.87 85.927-0.17773 0.3125-3.8711 8.1992-1.6973 152.51c3.8015 0.6784 7.7755 0.7862 11.584 0.14844l-1.3906-152.44z" fill="#fff" stroke-width=".21333"/>
<path d="m89.126 237.58c-1.8717 0.0334-3.9322 0.58716-5.0742 1.4277-1.3664 1.0057-2.508 3.7851-1 4.5625 20.475 10.556 33.701 9.6191 33.701 9.6191l-0.95117 33.131s0.27688 3.1109 6.25 3.25c8.623 0.2008 8.125-3.875 8.125-3.875l-0.64844-32.506c2.296 0.0577 14.762 0.0804 33.221-9.4356 1.508-0.77743 0.36639-3.5568-1-4.5625-1.8272-1.3449-6.0058-1.9571-8-0.875-13.247 7.1882-15.999 7.6085-25.029 9.2227-4e-3 -0.0259 9e-5 -8.9e-4 -4e-3 -0.0274-3.8141 0.63948-7.7946 0.53021-11.602-0.15039-9.0588-1.6195-11.798-2.0308-25.062-9.2285-0.74781-0.40578-1.8028-0.57276-2.9258-0.55274z" fill="#ffc61d"/>
<path d="m124.16 13.198c-52.79-0.68772-108.32 30.463-109.89 31.35 1.0035 14.131 1.8484 28.233 3.043 42.281 6.1467-5.5066 14.782-12.539 25.912-19.244 19.397-11.685 46.408-22.446 80.895-22.699h0.043c34.486 0.25299 61.498 11.014 80.895 22.699 10.35 6.2354 18.505 12.731 24.551 18.045 1.0598-13.763 2.0064-28.18 2.6152-40.85-1.5242-0.87987-53.825-30.875-108.06-31.582zm-0.0176 37.688c-33.253 0.24842-59.139 10.585-77.82 21.84-13.006 7.8355-22.307 15.954-28.328 21.617 0.03761 0.39422 0.06909 0.78946 0.10742 1.1836l105.22-42.062 105.21 45.516c0.16201-1.8954 0.32116-3.8695 0.48047-5.8203-6.0345-5.5838-14.906-13.119-27.049-20.434-18.681-11.254-44.567-21.591-77.82-21.84z" fill="#8c99a2"/>
<path d="m124.12 44.886c-34.486 0.25299-61.498 11.014-80.895 22.699-11.132 6.7062-19.761 13.734-25.912 19.244 0.21312 2.5063 0.44094 5.0111 0.67969 7.5137 6.0248-5.6655 15.323-13.783 28.328-21.617 18.681-11.254 44.567-21.591 77.82-21.84 33.253 0.24842 59.139 10.585 77.82 21.84 12.097 7.2878 21.008 14.837 27.049 20.42 0.20304-2.4866 0.40142-4.9768 0.59766-7.5254-6.0497-5.3122-14.226-11.815-24.551-18.035-19.397-11.685-46.408-22.446-80.895-22.699h-0.0215z" fill="#ba122b"/>
<path d="m124.11 62.792v2e-3c-56.492 0.0247-91.747 32.586-104.46 46.791 0.32892 2.6537 0.67816 5.3047 1.0566 7.9531 7.5488-9.4708 42.508-48.73 103.44-48.744 59.368 0.01351 94.021 37.235 102.74 47.906 0.26319-2.6049 0.52829-5.3038 0.79492-8.1777-13.495-14.715-48.42-45.704-103.51-45.729v-2e-3z" fill="#144d2a"/>
<path d="m124.11 56.761v2e-3c-56.714 0.0244-93.28 32.374-105.36 44.945 0.28465 2.6373 0.57198 5.2738 0.89844 7.9062 4.9499-5.8673 41.751-46.838 104.49-46.852 59.67 0.01333 95.878 37.077 103.54 45.754 0.23826-2.5683 0.47617-5.2212 0.71289-7.9551-13.065-13.255-49.088-43.775-104.22-43.799v-2e-3z" fill="#fcc916"/>
<path d="m124.11 50.886v0.0039c-54.122-0.06546-90.709 28.355-106.13 43.201 0.24278 2.5552 0.51159 5.1072 0.78711 7.6582 11.989-12.516 48.534-44.948 105.38-44.861 55.264-0.0845 91.263 30.505 104.25 43.713 0.21785-2.5151 0.43124-5.1147 0.64453-7.7324-16.122-15.131-52.202-42.042-104.86-41.979v-0.0039c-2e-3 -4e-6 -4e-3 3e-6 -6e-3 0h-0.0625c-2e-3 3e-6 -4e-3 -4e-6 -6e-3 0z" fill="#fa9e0d"/>
<path d="m226.8 126.89c2.283-19.434 5.1674-55.323 6.4659-82.691 0 0-53.683-31.278-109.09-32-53.956-0.70291-110.95 31.766-110.95 31.766 1.9824 27.77 3.2948 55.484 7.9146 82.926" fill="none" stroke="#252541" stroke-width="2"/>
</svg>
